<svg xmlns="http://www.w3.org/2000/svg" width="292" height="292" viewBox="0 0 292 292" fill="none"><path d="M146 200.75C176.238 200.75 200.75 176.238 200.75 146H292C292 184.722 276.618 221.857 249.238 249.238C221.857 276.618 184.722 292 146 292C107.278 292 70.1427 276.618 42.7624 249.238C15.3821 221.857 8.70228e-06 184.722 0 146L91.25 146C91.25 176.238 115.762 200.75 146 200.75Z" fill="url(#paint0_linear_470_2472)"></path><g filter="url(#filter0_ii_470_2472)"><path d="M280.886 90.1282C288.224 107.842 292 126.827 292 146H200.75C200.75 115.762 176.238 91.25 146 91.25C115.762 91.25 91.25 115.762 91.25 146L0 146C0 126.827 3.7764 107.842 11.1136 90.1282C18.4508 72.4147 29.205 56.3198 42.7624 42.7624C56.3198 29.2051 72.4147 18.4508 90.1282 11.1136C107.842 3.7764 126.827 0 146 0C165.173 0 184.158 3.7764 201.872 11.1136C219.585 18.4508 235.68 29.2051 249.238 42.7624C262.795 56.3198 273.549 72.4147 280.886 90.1282Z" fill="#0055FF" fill-opacity="0.15"></path><path d="M280.886 90.1282C288.224 107.842 292 126.827 292 146H200.75C200.75 115.762 176.238 91.25 146 91.25C115.762 91.25 91.25 115.762 91.25 146L0 146C0 126.827 3.7764 107.842 11.1136 90.1282C18.4508 72.4147 29.205 56.3198 42.7624 42.7624C56.3198 29.2051 72.4147 18.4508 90.1282 11.1136C107.842 3.7764 126.827 0 146 0C165.173 0 184.158 3.7764 201.872 11.1136C219.585 18.4508 235.68 29.2051 249.238 42.7624C262.795 56.3198 273.549 72.4147 280.886 90.1282Z" fill="url(#paint1_radial_470_2472)"></path></g><defs><filter id="filter0_ii_470_2472" x="-0.467263" y="0" width="292.935" height="147.031" filterUnits="userSpaceOnUse" color-interpolation-filters="sRGB"><feGaussianBlur stdDeviation="0.515426"></feGaussianBlur><feGaussianBlur stdDeviation="0.515426"></feGaussianBlur></filter><linearGradient id="paint0_linear_470_2472" x1="247.5" y1="234.5" x2="184.38" y2="98.66" gradientUnits="userSpaceOnUse"><stop stop-color="#0055FF"></stop><stop offset="1" stop-color="#0055FF" stop-opacity="0"></stop></linearGradient><radialGradient id="paint1_radial_470_2472" cx="0" cy="0" r="1" gradientUnits="userSpaceOnUse" gradientTransform="translate(-9.08992 -2.05135) rotate(28.6316) scale(289.337 177.15)"><stop stop-color="#0055FF" stop-opacity="0.1"></stop><stop offset="1" stop-color="#0055FF" stop-opacity="0"></stop></radialGradient></defs></svg>