<svg xmlns="http://www.w3.org/2000/svg" width="48" height="48" viewBox="0 0 48 48" fill="none"><path d="M23.9996 0C10.7657 0 0 10.7662 0 23.9996C0 37.2334 10.7657 48 23.9996 48C37.2325 48 47.9991 37.2334 47.9991 23.9996C47.9991 10.7662 37.2325 0 23.9996 0ZM30.7825 15.1505C30.7825 15.2641 30.7374 15.3731 30.657 15.4534C30.5767 15.5338 30.4677 15.5789 30.354 15.5789L27.6259 15.5807C25.8258 15.5807 25.4967 16.2817 25.4967 17.6622V20.5263H30.1758C30.2988 20.5263 30.4162 20.5794 30.4972 20.6719C30.5781 20.7645 30.6158 20.8875 30.6008 21.0096L29.9345 26.1656C29.9212 26.2689 29.8707 26.3638 29.7925 26.4326C29.7143 26.5013 29.6137 26.5392 29.5095 26.5392H25.4967V39.342C25.4967 39.4556 25.4516 39.5646 25.3712 39.645C25.2908 39.7253 25.1819 39.7705 25.0682 39.7705H19.7447C19.6311 39.7705 19.5221 39.7253 19.4417 39.645C19.3614 39.5646 19.3162 39.4556 19.3162 39.342V26.5392H15.2906C15.1769 26.5392 15.0679 26.4941 14.9876 26.4137C14.9072 26.3334 14.8621 26.2244 14.8621 26.1107V20.9547C14.8621 20.8411 14.9072 20.7321 14.9876 20.6518C15.0679 20.5714 15.1769 20.5263 15.2906 20.5263H19.3162V17.1519C19.3162 12.6828 22.0208 9.90705 26.3755 9.90705C28.2476 9.90705 29.902 10.0463 30.4102 10.1136C30.5132 10.1272 30.6077 10.1778 30.6762 10.2559C30.7447 10.334 30.7825 10.4343 30.7825 10.5382V15.1505Z" fill="#0055FF"></path></svg>