<svg xmlns="http://www.w3.org/2000/svg" viewBox="0 0 341.36 108.19"><defs><style>.cls-1{fill:#ffffff;}.cls-2{fill:#3264ff;}</style></defs><g id="Layer_2" data-name="Layer 2"><g id="Layer_1-2" data-name="Layer 1"><path class="cls-1" d="M64.25,0V37.16C59,30.59,50.85,26,38.2,26,15.86,26,0,43,0,67c0,23.82,15.86,41.16,38.2,41.16,11.59,0,20.38-4,25.63-10l.42,8.38H85V0ZM41.59,88.56A21.49,21.49,0,1,1,63.08,67.07,21.51,21.51,0,0,1,41.59,88.56Z"/><path class="cls-2" d="M319.87,108.19A21.49,21.49,0,1,1,341.36,86.7,21.51,21.51,0,0,1,319.87,108.19Zm0-30.33a8.85,8.85,0,1,0,8.84,8.84A8.75,8.75,0,0,0,319.87,77.86Z"/><path class="cls-1" d="M172.7,100.75c-7.64,4.36-18.24,7.4-29.74,7.4-27.93,0-45.84-16.52-45.84-41.08C97.12,42.92,114.2,26,137.62,26c24.23,0,42.64,18.24,37.46,47.4h-57c2.13,11,12,16.27,25,16.27a62.43,62.43,0,0,0,26.7-6ZM156.19,59.26c-.58-8.79-7.23-15.52-18.08-15.52-11.25,0-18.81,6.57-19.72,15.52Z"/><path class="cls-1" d="M228,26a60.21,60.21,0,0,1,24.81,5.26L251,49.57a52.63,52.63,0,0,0-20.7-4.27c-14.38,0-25.39,7.39-25.39,21.6,0,13.48,10.44,21.86,24.73,21.86a49.54,49.54,0,0,0,21.69-5.18l2.46,18.73c-8.29,3.7-15.93,5.84-25.55,5.84-26,0-44.44-16.76-44.44-41.16C183.8,41.35,202.53,26,228,26Z"/><path class="cls-1" d="M264.89,106.5V27.63H286V106.5Z"/></g></g></svg>