<svg xmlns="http://www.w3.org/2000/svg" width="48" height="48" viewBox="0 0 48 48" fill="none"><path d="M26.3911 21.2306H26.4279V21.1728L26.3911 21.2306ZM26.3911 21.2306H26.4279V21.1728L26.3911 21.2306ZM26.3911 21.2306H26.4279V21.1728L26.3911 21.2306ZM26.3911 21.2306H26.4279V21.1728L26.3911 21.2306ZM26.3911 21.2306H26.4279V21.1728L26.3911 21.2306ZM26.3911 21.2306H26.4279V21.1728L26.3911 21.2306ZM26.3911 21.2306H26.4279V21.1728L26.3911 21.2306ZM26.3911 21.2306H26.4279V21.1728L26.3911 21.2306ZM26.3911 21.2306H26.4279V21.1728L26.3911 21.2306ZM26.3911 21.2306H26.4279V21.1728L26.3911 21.2306ZM26.3911 21.2306H26.4279V21.1728L26.3911 21.2306ZM26.3911 21.2306H26.4279V21.1728L26.3911 21.2306ZM26.3911 21.2306H26.4279V21.1728L26.3911 21.2306ZM26.3911 21.2306H26.4279V21.1728L26.3911 21.2306ZM26.3911 21.2306H26.4279V21.1728L26.3911 21.2306ZM26.3911 21.2306H26.4279V21.1728L26.3911 21.2306ZM24 0C19.2533 0 14.6131 1.40757 10.6663 4.04473C6.71954 6.68188 3.6434 10.4302 1.8269 14.8156C0.0103985 19.201 -0.464881 24.0266 0.461164 28.6822C1.38721 33.3377 3.67299 37.6141 7.02945 40.9706C10.3859 44.327 14.6623 46.6128 19.3178 47.5388C23.9734 48.4649 28.799 47.9896 33.1844 46.1731C37.5698 44.3566 41.3181 41.2805 43.9553 37.3337C46.5924 33.3869 48 28.7467 48 24C47.993 17.6369 45.4622 11.5365 40.9629 7.03712C36.4635 2.53775 30.3631 0.00695493 24 0ZM17.9987 34.8045C17.9973 34.9109 17.9541 35.0124 17.8783 35.0872C17.8026 35.1619 17.7005 35.2039 17.5941 35.2038H12.9696C12.8636 35.2038 12.7621 35.1618 12.6872 35.0869C12.6123 35.012 12.5702 34.9104 12.5702 34.8045V19.2652C12.5695 19.2123 12.5793 19.1598 12.5991 19.1107C12.6188 19.0616 12.6481 19.017 12.6853 18.9793C12.7224 18.9417 12.7667 18.9118 12.8155 18.8914C12.8643 18.871 12.9167 18.8605 12.9696 18.8605H17.5941C17.6472 18.8605 17.6998 18.871 17.7489 18.8913C17.798 18.9117 17.8426 18.9415 17.8802 18.979C17.9178 19.0166 17.9476 19.0612 17.9679 19.1103C17.9882 19.1594 17.9987 19.212 17.9987 19.2652V34.8045ZM15.1189 16.7848C14.5441 16.7848 13.9823 16.6143 13.5044 16.295C13.0265 15.9757 12.654 15.5218 12.4341 14.9908C12.2141 14.4598 12.1565 13.8755 12.2687 13.3117C12.3808 12.748 12.6576 12.2302 13.064 11.8238C13.4704 11.4174 13.9882 11.1406 14.552 11.0285C15.1157 10.9163 15.7 10.9739 16.231 11.1938C16.762 11.4138 17.2159 11.7863 17.5352 12.2642C17.8545 12.7421 18.025 13.3039 18.025 13.8787C18.0257 14.2605 17.951 14.6387 17.8052 14.9916C17.6594 15.3445 17.4453 15.6651 17.1753 15.9351C16.9054 16.2051 16.5847 16.4192 16.2318 16.565C15.8789 16.7108 15.5007 16.7854 15.1189 16.7848ZM37.5686 34.8045C37.5673 34.9109 37.524 35.0124 37.4483 35.0872C37.3726 35.1619 37.2704 35.2039 37.164 35.2038H32.5395C32.4871 35.2038 32.4351 35.1935 32.3867 35.1734C32.3382 35.1534 32.2942 35.124 32.2571 35.0869C32.22 35.0498 32.1906 35.0058 32.1705 34.9573C32.1505 34.9088 32.1401 34.8569 32.1401 34.8045V26.4541C32.1401 24.2575 31.3571 22.7756 29.3917 22.7756C28.7793 22.779 28.1829 22.9717 27.6843 23.3273C27.1857 23.6829 26.8092 24.1841 26.6065 24.762C26.468 25.1891 26.4075 25.6377 26.4279 26.0863V34.8045C26.4279 34.9118 26.3852 35.0147 26.3093 35.0906C26.2335 35.1665 26.1305 35.2091 26.0232 35.2091H21.3987C21.3458 35.2091 21.2935 35.1986 21.2447 35.1782C21.1959 35.1578 21.1516 35.1279 21.1145 35.0903C21.0773 35.0526 21.048 35.008 21.0282 34.9589C21.0085 34.9099 20.9987 34.8574 20.9994 34.8045C20.9994 32.5868 21.0572 21.8191 20.9994 19.2862C20.9987 19.2333 21.0085 19.1808 21.0282 19.1317C21.048 19.0827 21.0773 19.038 21.1145 19.0004C21.1516 18.9627 21.1959 18.9328 21.2447 18.9124C21.2935 18.892 21.3458 18.8815 21.3987 18.8815H26.0127C26.066 18.8808 26.119 18.8908 26.1684 18.9109C26.2178 18.931 26.2627 18.9608 26.3004 18.9985C26.3381 19.0362 26.3679 19.0811 26.388 19.1305C26.4081 19.1799 26.4181 19.2328 26.4173 19.2862V21.1938C26.9089 20.3405 27.6248 19.6381 28.4872 19.1628C29.3497 18.6876 30.3259 18.4576 31.3098 18.4979C34.878 18.4979 37.5581 20.8312 37.5581 25.855L37.5686 34.8045ZM26.4279 21.2463V21.1885L26.3911 21.2463H26.4279ZM26.3911 21.2463H26.4279V21.1885L26.3911 21.2463ZM26.3911 21.2463H26.4279V21.1885L26.3911 21.2463ZM26.3911 21.2463H26.4279V21.1885L26.3911 21.2463ZM26.3911 21.2463H26.4279V21.1885L26.3911 21.2463ZM26.3911 21.2463H26.4279V21.1885L26.3911 21.2463ZM26.3911 21.2463H26.4279V21.1885L26.3911 21.2463ZM26.3911 21.2463H26.4279V21.1885L26.3911 21.2463ZM26.3911 21.2463H26.4279V21.1885L26.3911 21.2463ZM26.3911 21.2463H26.4279V21.1885L26.3911 21.2463ZM26.3911 21.2463H26.4279V21.1885L26.3911 21.2463ZM26.3911 21.2463H26.4279V21.1885L26.3911 21.2463ZM26.3911 21.2463H26.4279V21.1885L26.3911 21.2463ZM26.3911 21.2463H26.4279V21.1885L26.3911 21.2463ZM26.3911 21.2463H26.4279V21.1885L26.3911 21.2463Z" fill="#0055FF"></path></svg>
