<svg xmlns="http://www.w3.org/2000/svg" width="22" height="14" viewBox="0 0 22 14" fill="none"><path fill-rule="evenodd" clip-rule="evenodd" d="M6.29984 0.961182C9.63484 0.961182 12.3386 3.66493 12.3386 6.99993C12.3386 10.3349 9.63484 13.0387 6.29984 13.0387C2.96547 13.0387 0.261719 10.3349 0.261719 6.99993C0.261719 3.66493 2.96547 0.961182 6.29984 0.961182ZM20.6736 1.91493C21.2617 1.91493 21.738 4.19181 21.738 6.99993C21.738 9.80806 21.2617 12.0849 20.6736 12.0849C20.0861 12.0849 19.6092 9.80806 19.6092 6.99993C19.6092 4.19181 20.0861 1.91493 20.6736 1.91493ZM15.9623 1.43806C17.6498 1.43806 19.0173 3.92806 19.0173 6.99993C19.0173 10.0718 17.6498 12.5618 15.9623 12.5618C14.2748 12.5618 12.9067 10.0718 12.9067 6.99993C12.9067 3.92806 14.2748 1.43806 15.9623 1.43806Z" fill="#0E0F13"></path></svg>