<svg xmlns="http://www.w3.org/2000/svg" width="48" height="48" viewBox="0 0 48 48" fill="none"><path d="M23.9996 0C10.7664 0 0 10.7664 0 24C0 37.2341 10.7664 48.0009 23.9996 48.0009C37.2336 48.0009 48 37.2341 48 24C47.9996 10.7664 37.2332 0 23.9996 0V0ZM36.773 17.7405C36.1366 18.6935 35.3453 19.5332 34.4317 20.225C34.4356 20.3642 34.4381 20.5035 34.4381 20.6427C34.4381 27.6418 29.1124 34.8812 20.1997 34.8812C17.4798 34.8825 14.8169 34.1026 12.5275 32.6342C12.4459 32.5821 12.3844 32.5038 12.3531 32.4122C12.3218 32.3205 12.3225 32.221 12.3552 32.1298C12.387 32.0382 12.4493 31.9602 12.5316 31.9089C12.614 31.8576 12.7114 31.8361 12.8077 31.8479C13.1835 31.8912 13.5559 31.9126 13.9149 31.9126C15.6632 31.9126 17.3292 31.4425 18.7916 30.5444C17.9109 30.3318 17.0997 29.896 16.4361 29.2791C15.7725 28.6621 15.279 27.8847 15.0029 27.0217C14.9803 26.9509 14.9765 26.8754 14.9918 26.8026C15.0071 26.7298 15.0411 26.6623 15.0903 26.6065C15.1396 26.5507 15.2026 26.5088 15.2731 26.4849C15.3437 26.4611 15.4192 26.4562 15.4922 26.4707C15.5728 26.4861 15.6538 26.4994 15.7343 26.5106C14.2462 25.5623 13.2808 23.895 13.2808 22.0491V21.9878C13.2808 21.9132 13.3003 21.8399 13.3373 21.7752C13.3744 21.7105 13.4277 21.6565 13.4919 21.6187C13.5562 21.5809 13.6292 21.5605 13.7038 21.5595C13.7783 21.5586 13.8519 21.5771 13.9171 21.6133C14.1035 21.7165 14.2967 21.8061 14.4951 21.8815C13.7337 20.9404 13.3188 19.7661 13.3202 18.5555C13.3202 17.6223 13.5674 16.7036 14.0349 15.8993C14.0697 15.8393 14.1185 15.7887 14.1772 15.7518C14.2358 15.7148 14.3026 15.6927 14.3717 15.6872C14.4408 15.6817 14.5102 15.6931 14.5739 15.7203C14.6377 15.7476 14.6939 15.7899 14.7377 15.8436C17.0168 18.6382 20.3299 20.3964 23.8937 20.7203C23.8685 20.508 23.8559 20.2944 23.856 20.0806C23.856 17.1681 26.226 14.7985 29.1389 14.7985C30.5131 14.7985 31.8427 15.3405 32.8236 16.2927C33.7821 16.0793 34.7007 15.7149 35.5449 15.2133C35.566 15.1472 35.6028 15.0872 35.6522 15.0384C35.7016 14.9897 35.762 14.9536 35.8284 14.9334C35.8948 14.9132 35.9651 14.9094 36.0333 14.9224C36.1014 14.9353 36.1654 14.9647 36.2197 15.0078C36.2741 15.051 36.3171 15.1067 36.3452 15.1702C36.3732 15.2336 36.3854 15.303 36.3807 15.3722C36.3761 15.4414 36.3547 15.5085 36.3183 15.5676C36.282 15.6267 36.2319 15.6762 36.1723 15.7116C35.9624 16.3695 35.6246 16.9793 35.1781 17.5062C35.5413 17.3965 35.8972 17.2642 36.2438 17.1102C36.3287 17.0727 36.4235 17.0638 36.5139 17.0848C36.6043 17.1058 36.6854 17.1556 36.7451 17.2267C36.8048 17.2978 36.8397 17.3863 36.8448 17.479C36.8498 17.5716 36.8246 17.6634 36.773 17.7405V17.7405Z" fill="#0055FF"></path></svg>