<svg xmlns="http://www.w3.org/2000/svg" width="48" height="48" viewBox="0 0 48 48" fill="none"><path d="M24 0C10.746 0 0 10.7445 0 24C0 37.254 10.746 48 24 48C37.254 48 48 37.254 48 24C48 10.7445 37.254 0 24 0ZM35.742 19.458C34.338 27.366 26.493 34.0635 24.135 35.5935C21.7755 37.1235 19.623 34.9815 18.843 33.3615C17.949 31.515 15.27 21.4995 14.5695 20.67C13.8675 19.8405 11.763 21.4995 11.763 21.4995L10.743 20.16C10.743 20.16 15.0165 15.057 18.2685 14.4195C21.717 13.743 21.7125 19.713 22.5405 23.028C23.343 26.235 23.8815 28.0695 24.582 28.0695C25.2825 28.0695 26.6235 26.2815 28.089 23.5395C29.5575 20.7945 28.026 18.372 25.155 20.0955C26.3025 13.2075 37.146 11.5515 35.742 19.458Z" fill="#0055FF"></path></svg>