<svg xmlns="http://www.w3.org/2000/svg" width="48" height="48" viewBox="0 0 48 48" fill="none"><path d="M20.7441 28.8883L28.8921 23.9998L20.7441 19.1113V28.8883Z" fill="#0055FF"></path><path d="M24 0C10.746 0 0 10.7445 0 24C0 37.2555 10.746 48 24 48C37.254 48 48 37.254 48 24C48 10.746 37.254 0 24 0ZM37.032 25.0515C37.032 27.3015 36.771 29.5515 36.771 29.5515C36.771 29.5515 36.516 31.4685 35.736 32.31C34.7445 33.417 33.6345 33.423 33.1245 33.489C29.4765 33.768 24 33.777 24 33.777C24 33.777 17.223 33.711 15.138 33.498C14.5575 33.3825 13.257 33.4155 12.264 32.31C11.4825 31.467 11.229 29.5515 11.229 29.5515C11.229 29.5515 10.968 27.303 10.968 25.0515V22.9425C10.968 20.6925 11.229 18.444 11.229 18.444C11.229 18.444 11.484 16.527 12.264 15.6825C13.2555 14.574 14.3655 14.568 14.8755 14.505C18.522 14.223 23.994 14.223 23.994 14.223H24.006C24.006 14.223 29.478 14.223 33.1245 14.505C33.633 14.568 34.7445 14.574 35.736 15.681C36.5175 16.5255 36.771 18.4425 36.771 18.4425C36.771 18.4425 37.032 20.6925 37.032 22.9425V25.0515Z" fill="#0055FF"></path></svg>